<svg width="1508" height="52" viewBox="0 0 1508 52" fill="none" xmlns="http://www.w3.org/2000/svg">
<path d="M0 16C0 10.3995 0 7.59921 1.08993 5.46009C2.04867 3.57847 3.57847 2.04867 5.46009 1.08993C7.59921 0 10.3995 0 16 0H1492C1497.6 0 1500.4 0 1502.54 1.08993C1504.42 2.04867 1505.95 3.57847 1506.91 5.46009C1508 7.59921 1508 10.3995 1508 16V52H0V16Z" fill="#252729"/>
<path fill-rule="evenodd" clip-rule="evenodd" d="M26 32C29.3137 32 32 29.3137 32 26C32 22.6863 29.3137 20 26 20C22.6863 20 20 22.6863 20 26C20 29.3137 22.6863 32 26 32Z" fill="#ED6A5F"/>
<path fill-rule="evenodd" clip-rule="evenodd" d="M46 32C49.3137 32 52 29.3137 52 26C52 22.6863 49.3137 20 46 20C42.6863 20 40 22.6863 40 26C40 29.3137 42.6863 32 46 32Z" fill="#F5BF4F"/>
<path fill-rule="evenodd" clip-rule="evenodd" d="M66 32C69.3137 32 72 29.3137 72 26C72 22.6863 69.3137 20 66 20C62.6863 20 60 22.6863 60 26C60 29.3137 62.6863 32 66 32Z" fill="#61C554"/>
<path opacity="0.7" d="M100.723 33.6602H115.083C116.827 33.6602 117.69 32.7969 117.69 31.0869V20.9517C117.69 19.2417 116.827 18.3784 115.083 18.3784H100.723C98.9883 18.3784 98.1167 19.2334 98.1167 20.9517V31.0869C98.1167 32.8052 98.9883 33.6602 100.723 33.6602ZM100.74 32.3237C99.9097 32.3237 99.4531 31.8838 99.4531 31.0205V21.0181C99.4531 20.1548 99.9097 19.7148 100.74 19.7148H104.442V32.3237H100.74ZM115.067 19.7148C115.889 19.7148 116.354 20.1548 116.354 21.0181V31.0205C116.354 31.8838 115.889 32.3237 115.067 32.3237H105.745V19.7148H115.067ZM102.848 22.7944C103.097 22.7944 103.321 22.5703 103.321 22.3296C103.321 22.0806 103.097 21.8647 102.848 21.8647H101.063C100.814 21.8647 100.599 22.0806 100.599 22.3296C100.599 22.5703 100.814 22.7944 101.063 22.7944H102.848ZM102.848 24.9443C103.097 24.9443 103.321 24.7202 103.321 24.4712C103.321 24.2222 103.097 24.0146 102.848 24.0146H101.063C100.814 24.0146 100.599 24.2222 100.599 24.4712C100.599 24.7202 100.814 24.9443 101.063 24.9443H102.848ZM102.848 27.0859C103.097 27.0859 103.321 26.8784 103.321 26.6294C103.321 26.3804 103.097 26.1646 102.848 26.1646H101.063C100.814 26.1646 100.599 26.3804 100.599 26.6294C100.599 26.8784 100.814 27.0859 101.063 27.0859H102.848Z" fill="#F1F1F1"/>
<rect opacity="0.1" x="124" y="17" width="1" height="18" fill="#F1F1F1"/>
<path opacity="0.6" d="M133.672 28.5117C133.922 28.5117 134.113 28.4219 134.316 28.2188L137.133 25.3359C137.281 25.1914 137.348 25.0195 137.348 24.8125C137.348 24.3906 137.004 24.0391 136.586 24.0391C136.379 24.0391 136.184 24.125 136.023 24.293L133.68 26.7266L131.324 24.293C131.164 24.1289 130.969 24.0391 130.758 24.0391C130.34 24.0391 129.996 24.3906 129.996 24.8125C129.996 25.0195 130.066 25.1875 130.211 25.3398L133.031 28.2188C133.234 28.4258 133.43 28.5117 133.672 28.5117Z" fill="#F1F1F1"/>
<path opacity="0.7" d="M160.062 26.0068C160.062 26.2144 160.137 26.397 160.295 26.5547L166.877 32.9878C167.019 33.1372 167.201 33.2119 167.417 33.2119C167.849 33.2119 168.181 32.8882 168.181 32.4565C168.181 32.2407 168.089 32.0581 167.957 31.917L161.914 26.0068L167.957 20.0967C168.089 19.9556 168.181 19.7646 168.181 19.5571C168.181 19.1255 167.849 18.8018 167.417 18.8018C167.201 18.8018 167.019 18.8765 166.877 19.0176L160.295 25.459C160.137 25.6084 160.062 25.7993 160.062 26.0068Z" fill="#F1F1F1"/>
<path opacity="0.7" d="M1386.95 34.4736C1391.58 34.4736 1395.42 30.6304 1395.42 26.0068C1395.42 21.375 1391.58 17.54 1386.94 17.54C1382.32 17.54 1378.49 21.375 1378.49 26.0068C1378.49 30.6304 1382.33 34.4736 1386.95 34.4736ZM1386.95 33.0625C1383.03 33.0625 1379.91 29.9248 1379.91 26.0068C1379.91 22.0889 1383.03 18.9512 1386.94 18.9512C1390.86 18.9512 1394 22.0889 1394.01 26.0068C1394.02 29.9248 1390.87 33.0625 1386.95 33.0625ZM1386.95 21.7817C1386.6 21.7817 1386.33 22.0391 1386.33 22.4043V26.5547L1386.4 28.3062L1385.57 27.3101L1384.58 26.314C1384.46 26.1978 1384.31 26.1313 1384.14 26.1313C1383.8 26.1313 1383.54 26.3887 1383.54 26.729C1383.54 26.9033 1383.59 27.0527 1383.7 27.1606L1386.47 29.9165C1386.64 30.0825 1386.78 30.1572 1386.95 30.1572C1387.14 30.1572 1387.28 30.0742 1387.44 29.9165L1390.21 27.1606C1390.31 27.0527 1390.38 26.9033 1390.38 26.729C1390.38 26.3887 1390.12 26.1313 1389.77 26.1313C1389.59 26.1313 1389.44 26.1895 1389.33 26.314L1388.36 27.3101L1387.51 28.3145L1387.58 26.5547V22.4043C1387.58 22.0391 1387.32 21.7817 1386.95 21.7817Z" fill="#F1F1F1"/>
<path opacity="0.7" d="M1430.48 28.2646C1430.84 28.2646 1431.14 27.9658 1431.14 27.6172V19.0923L1431.09 17.8472L1431.65 18.4365L1432.91 19.7812C1433.03 19.9141 1433.19 19.9805 1433.36 19.9805C1433.7 19.9805 1433.97 19.7314 1433.97 19.3911C1433.97 19.2168 1433.89 19.084 1433.77 18.9595L1430.96 16.2534C1430.79 16.0874 1430.65 16.0293 1430.48 16.0293C1430.31 16.0293 1430.17 16.0874 1430 16.2534L1427.19 18.9595C1427.07 19.084 1427 19.2168 1427 19.3911C1427 19.7314 1427.25 19.9805 1427.6 19.9805C1427.76 19.9805 1427.94 19.9141 1428.06 19.7812L1429.31 18.4365L1429.87 17.8472L1429.82 19.0923V27.6172C1429.82 27.9658 1430.12 28.2646 1430.48 28.2646ZM1425.72 34.7642H1435.24C1436.98 34.7642 1437.85 33.9009 1437.85 32.1909V23.9067C1437.85 22.1968 1436.98 21.3335 1435.24 21.3335H1432.93V22.6699H1435.22C1436.04 22.6699 1436.51 23.1182 1436.51 23.9814V32.1162C1436.51 32.9795 1436.04 33.4277 1435.22 33.4277H1425.74C1424.91 33.4277 1424.45 32.9795 1424.45 32.1162V23.9814C1424.45 23.1182 1424.91 22.6699 1425.74 22.6699H1428.04V21.3335H1425.72C1423.99 21.3335 1423.12 22.1968 1423.12 23.9067V32.1909C1423.12 33.9009 1423.99 34.7642 1425.72 34.7642Z" fill="#F1F1F1"/>
<path opacity="0.7" d="M1466.12 26.0068C1466.12 26.4136 1466.46 26.7456 1466.86 26.7456H1472.23V32.1162C1472.23 32.5146 1472.56 32.855 1472.96 32.855C1473.37 32.855 1473.71 32.5146 1473.71 32.1162V26.7456H1479.07C1479.47 26.7456 1479.81 26.4136 1479.81 26.0068C1479.81 25.6001 1479.47 25.2598 1479.07 25.2598H1473.71V19.8975C1473.71 19.499 1473.37 19.1587 1472.96 19.1587C1472.56 19.1587 1472.23 19.499 1472.23 19.8975V25.2598H1466.86C1466.46 25.2598 1466.12 25.6001 1466.12 26.0068Z" fill="#F1F1F1"/>
<rect x="514" y="12" width="480" height="28" rx="6" fill="#F1F1F1" fill-opacity="0.1"/>
<path opacity="0.7" d="M975.782 33.1826C979.869 33.1826 983.252 29.7915 983.252 25.7119C983.252 21.625 979.861 18.2412 975.774 18.2412C971.695 18.2412 968.311 21.625 968.311 25.7119C968.311 29.7915 971.702 33.1826 975.782 33.1826ZM972.259 26.8105C971.651 26.8105 971.153 26.3198 971.153 25.7046C971.153 25.0967 971.651 24.606 972.259 24.606C972.859 24.606 973.357 25.0967 973.357 25.7046C973.357 26.3198 972.867 26.8105 972.259 26.8105ZM975.782 26.8105C975.174 26.8105 974.676 26.3198 974.676 25.7046C974.676 25.0967 975.174 24.606 975.782 24.606C976.39 24.606 976.88 25.0967 976.88 25.7046C976.88 26.3198 976.39 26.8105 975.782 26.8105ZM979.312 26.8105C978.697 26.8105 978.206 26.3198 978.206 25.7046C978.206 25.0967 978.697 24.606 979.312 24.606C979.913 24.606 980.411 25.0967 980.411 25.7046C980.411 26.3198 979.913 26.8105 979.312 26.8105Z" fill="#F1F1F1"/>
<rect x="701" y="17.5" width="16" height="16" rx="2" fill="#F1F1F1"/>
<path d="M728.851 30.1367C729.801 30.1367 730.655 29.624 731.072 28.8447H731.1V30H732.289V25.085C732.289 23.6631 731.236 22.7539 729.555 22.7539C727.88 22.7539 726.861 23.6973 726.759 24.8662L726.752 24.9414H727.9L727.914 24.8799C728.051 24.2441 728.625 23.8066 729.541 23.8066C730.532 23.8066 731.1 24.333 731.1 25.2012V25.7959L729.062 25.9121C727.429 26.0078 726.485 26.7666 726.485 27.9766V27.9902C726.485 29.2822 727.436 30.1367 728.851 30.1367ZM727.702 27.9902V27.9766C727.702 27.3135 728.249 26.8896 729.199 26.835L731.1 26.7188V27.2998C731.1 28.332 730.238 29.1045 729.117 29.1045C728.263 29.1045 727.702 28.6738 727.702 27.9902ZM734.01 32.3926H735.199V28.8105H735.227C735.671 29.6309 736.498 30.1367 737.503 30.1367C739.287 30.1367 740.504 28.6943 740.504 26.4521V26.4453C740.504 24.2031 739.301 22.7539 737.482 22.7539C736.464 22.7539 735.671 23.2666 735.227 24.0938H735.199V22.8906H734.01V32.3926ZM737.25 29.084C736.054 29.084 735.192 28.0381 735.192 26.4521V26.4453C735.192 24.8525 736.047 23.8066 737.25 23.8066C738.508 23.8066 739.287 24.8115 739.287 26.4453V26.4521C739.287 28.0723 738.508 29.084 737.25 29.084ZM741.917 32.3926H743.107V28.8105H743.134C743.578 29.6309 744.405 30.1367 745.41 30.1367C747.194 30.1367 748.411 28.6943 748.411 26.4521V26.4453C748.411 24.2031 747.208 22.7539 745.39 22.7539C744.371 22.7539 743.578 23.2666 743.134 24.0938H743.107V22.8906H741.917V32.3926ZM745.157 29.084C743.961 29.084 743.1 28.0381 743.1 26.4521V26.4453C743.1 24.8525 743.954 23.8066 745.157 23.8066C746.415 23.8066 747.194 24.8115 747.194 26.4453V26.4521C747.194 28.0723 746.415 29.084 745.157 29.084ZM749.886 30H751.075V20.1357H749.886V30ZM755.818 30.1367C757.369 30.1367 758.531 29.207 758.764 28.0312L758.778 27.9629H757.609L757.588 28.0244C757.383 28.6328 756.747 29.084 755.845 29.084C754.58 29.084 753.774 28.2295 753.746 26.7666H758.866V26.3291C758.866 24.1963 757.684 22.7539 755.742 22.7539C753.801 22.7539 752.543 24.2646 752.543 26.4658V26.4727C752.543 28.708 753.774 30.1367 755.818 30.1367ZM755.736 23.8066C756.775 23.8066 757.54 24.4561 757.656 25.8369H753.767C753.897 24.5107 754.703 23.8066 755.736 23.8066ZM761.011 30.0957C761.448 30.0957 761.79 29.7539 761.79 29.3164C761.79 28.8789 761.448 28.5371 761.011 28.5371C760.573 28.5371 760.232 28.8789 760.232 29.3164C760.232 29.7539 760.573 30.0957 761.011 30.0957ZM766.033 30.1367C767.64 30.1367 768.809 29.0908 769 27.7373L769.007 27.6895H767.838L767.824 27.7441C767.626 28.5371 767.004 29.084 766.033 29.084C764.803 29.084 763.955 28.1064 763.955 26.4521V26.4453C763.955 24.832 764.782 23.8066 766.02 23.8066C767.066 23.8066 767.64 24.4355 767.818 25.1465L767.831 25.2012H768.993L768.987 25.1465C768.836 23.9297 767.79 22.7539 766.02 22.7539C764.044 22.7539 762.739 24.1895 762.739 26.4316V26.4385C762.739 28.7012 764.017 30.1367 766.033 30.1367ZM773.257 30.1367C775.219 30.1367 776.545 28.7148 776.545 26.4453V26.4316C776.545 24.1621 775.212 22.7539 773.25 22.7539C771.288 22.7539 769.962 24.1689 769.962 26.4316V26.4453C769.962 28.708 771.282 30.1367 773.257 30.1367ZM773.264 29.084C772.006 29.084 771.179 28.1201 771.179 26.4453V26.4316C771.179 24.7705 772.013 23.8066 773.25 23.8066C774.508 23.8066 775.328 24.7637 775.328 26.4316V26.4453C775.328 28.1133 774.515 29.084 773.264 29.084ZM777.958 30H779.148V25.543C779.148 24.5518 779.831 23.8066 780.775 23.8066C781.657 23.8066 782.231 24.374 782.231 25.2354V30H783.42V25.4814C783.42 24.5107 784.083 23.8066 785.027 23.8066C785.963 23.8066 786.503 24.3877 786.503 25.3652V30H787.693V25.0918C787.693 23.6768 786.784 22.7539 785.375 22.7539C784.377 22.7539 783.543 23.2666 783.147 24.1211H783.119C782.812 23.2529 782.094 22.7539 781.123 22.7539C780.207 22.7539 779.496 23.2256 779.175 23.9297H779.148V22.8906H777.958V30Z" fill="#F1F1F1"/>
<path opacity="0.7" d="M796.156 31.5381H802.698C803.566 31.5381 803.997 31.1143 803.997 30.1641V25.0781C803.997 24.1826 803.614 23.752 802.842 23.7041V22.0498C802.842 19.6436 801.276 18.3311 799.424 18.3311C797.571 18.3311 796.006 19.6436 796.006 22.0498V23.7178C795.274 23.793 794.851 24.2236 794.851 25.0781V30.1641C794.851 31.1143 795.281 31.5381 796.156 31.5381ZM796.854 21.9678C796.854 20.1836 797.981 19.1309 799.424 19.1309C800.866 19.1309 802.001 20.1836 802.001 21.9678V23.7041L796.854 23.7109V21.9678Z" fill="#F1F1F1"/>
</svg>
