<svg width="105" height="20" viewBox="0 0 105 20" fill="none" xmlns="http://www.w3.org/2000/svg">
<path opacity="0.7" d="M9.95264 18.4736C14.5845 18.4736 18.4194 14.6304 18.4194 10.0068C18.4194 5.375 14.5762 1.54004 9.94434 1.54004C5.3208 1.54004 1.48584 5.375 1.48584 10.0068C1.48584 14.6304 5.3291 18.4736 9.95264 18.4736ZM9.95264 17.0625C6.03467 17.0625 2.90527 13.9248 2.90527 10.0068C2.90527 6.08887 6.02637 2.95117 9.94434 2.95117C13.8623 2.95117 17 6.08887 17.0083 10.0068C17.0166 13.9248 13.8706 17.0625 9.95264 17.0625ZM9.95264 5.78174C9.5957 5.78174 9.33008 6.03906 9.33008 6.4043V10.5547L9.39648 12.3062L8.56641 11.3101L7.57861 10.314C7.4624 10.1978 7.31299 10.1313 7.13867 10.1313C6.79834 10.1313 6.54102 10.3887 6.54102 10.729C6.54102 10.9033 6.59082 11.0527 6.69873 11.1606L9.47119 13.9165C9.63721 14.0825 9.77832 14.1572 9.95264 14.1572C10.1353 14.1572 10.2847 14.0742 10.4424 13.9165L13.2065 11.1606C13.3145 11.0527 13.3809 10.9033 13.3809 10.729C13.3809 10.3887 13.1152 10.1313 12.7749 10.1313C12.5923 10.1313 12.4429 10.1895 12.335 10.314L11.3555 11.3101L10.5088 12.3145L10.5752 10.5547V6.4043C10.5752 6.03906 10.3179 5.78174 9.95264 5.78174Z" fill="#eee"/>
<path opacity="0.7" d="M53.4795 12.2646C53.8364 12.2646 54.1436 11.9658 54.1436 11.6172V3.09229L54.0938 1.84717L54.6499 2.43652L55.9116 3.78125C56.0278 3.91406 56.1938 3.98047 56.3599 3.98047C56.7002 3.98047 56.9658 3.73145 56.9658 3.39111C56.9658 3.2168 56.8911 3.08398 56.7666 2.95947L53.9609 0.253418C53.7949 0.0874023 53.6538 0.0292969 53.4795 0.0292969C53.3135 0.0292969 53.1724 0.0874023 52.998 0.253418L50.1924 2.95947C50.0679 3.08398 50.0015 3.2168 50.0015 3.39111C50.0015 3.73145 50.2505 3.98047 50.5991 3.98047C50.7568 3.98047 50.9395 3.91406 51.0557 3.78125L52.3091 2.43652L52.8735 1.84717L52.8237 3.09229V11.6172C52.8237 11.9658 53.1226 12.2646 53.4795 12.2646ZM48.7231 18.7642H58.2441C59.979 18.7642 60.8506 17.9009 60.8506 16.1909V7.90674C60.8506 6.19678 59.979 5.3335 58.2441 5.3335H55.9282V6.66992H58.2192C59.041 6.66992 59.5142 7.11816 59.5142 7.98145V16.1162C59.5142 16.9795 59.041 17.4277 58.2192 17.4277H48.7397C47.9097 17.4277 47.4531 16.9795 47.4531 16.1162V7.98145C47.4531 7.11816 47.9097 6.66992 48.7397 6.66992H51.0391V5.3335H48.7231C46.9883 5.3335 46.1167 6.19678 46.1167 7.90674V16.1909C46.1167 17.9009 46.9883 18.7642 48.7231 18.7642Z" fill="#eee"/>
<path opacity="0.7" d="M89.1167 10.0068C89.1167 10.4136 89.457 10.7456 89.8555 10.7456H95.2261V16.1162C95.2261 16.5146 95.5581 16.855 95.9648 16.855C96.3716 16.855 96.7119 16.5146 96.7119 16.1162V10.7456H102.074C102.473 10.7456 102.813 10.4136 102.813 10.0068C102.813 9.6001 102.473 9.25977 102.074 9.25977H96.7119V3.89746C96.7119 3.49902 96.3716 3.15869 95.9648 3.15869C95.5581 3.15869 95.2261 3.49902 95.2261 3.89746V9.25977H89.8555C89.457 9.25977 89.1167 9.6001 89.1167 10.0068Z" fill="#eee"/>
</svg>
